PathFileType	4	(X/Y/Z)	C:\My Captures\DataSMARTClinic\0004~001 ID\0004~aa~STRATO_01\W2_STRATO_ID_01.trc
DataRate	CameraRate	NumFrames	NumMarkers	Units	OrigDataRate	OrigDataStartFrame	OrigNumFrames
250.00	250.00	13	18	mm	250.00	181	1811
Frame#	Time	r.should			l.should			c7			r.asis			l.asis			sacrum			r.bar1			l.bar1			r.knee1			l.knee1			r.bar2			r.mall			l.bar2			l.mall			r.met			r.heel			l.heel			l.met			
		X1	Y1	Z1	X2	Y2	Z2	X3	Y3	Z3	X4	Y4	Z4	X5	Y5	Z5	X6	Y6	Z6	X7	Y7	Z7	X8	Y8	Z8	X9	Y9	Z9	X10	Y10	Z10	X11	Y11	Z11	X12	Y12	Z12	X13	Y13	Z13	X14	Y14	Z14	X15	Y15	Z15	X16	Y16	Z16	X17	Y17	Z17	X18	Y18	Z18	

1054	4.216000	-146.399841	1280.728459	339.379907	-161.860377	1281.678796	49.763717	-233.432472	1337.139606	183.982939	-115.202265	854.716241	357.806623	-107.677735	854.472816	88.215962	-317.055017	896.989286	208.280772	-190.260857	763.328433	406.011760	-177.567557	760.021687	28.281461	-50.423391	444.119841	343.633443	-254.667997	422.436923	79.158492	-52.514233	384.571493	346.730590	-25.337294	90.182491	299.131751	-275.108099	356.171072	81.072107	-341.831297	75.633153	137.422562	100.182392	67.043349	291.729808	-73.470555	48.952512	243.903190	-412.130594	52.874632	178.360403	-220.483586	37.848882	168.965191	
1055	4.220000	-141.169161	1280.122042	340.223432	-157.564580	1281.250000	49.925517	-229.125008	1336.635828	184.154823	-111.025054	854.254484	357.975036	-103.737116	854.033947	88.178217	-312.747031	896.475255	208.689779	-185.937092	762.800336	406.235635	-173.813120	759.566545	28.319003	-46.882395	442.794263	343.573600	-252.443314	422.339320	79.084963	-47.883831	383.216858	346.469015	-13.503922	89.468226	298.993677	-273.240030	356.006980	81.140831	-341.494441	76.037861	137.171611	112.646580	69.085464	291.464090	-60.667619	47.099523	243.699461	-412.028015	53.449642	178.253487	-220.493138	37.852891	168.951660	
1056	4.224000	-136.561796	1279.504299	340.553761	-153.264314	1280.816317	50.123751	-224.821299	1336.129189	184.350550	-106.982036	853.757262	358.071238	-99.784814	853.617132	88.155583	-308.415443	895.949841	209.111050	-181.578904	762.248278	406.444669	-170.129076	759.153903	28.300785	-43.400887	441.567808	343.467504	-250.242114	422.249138	79.031140	-43.264411	381.842434	346.226722	-1.868449	88.920176	298.875064	-271.547019	356.197834	80.786161	-341.045141	76.595105	136.681020	124.845289	71.237698	291.248262	-48.150286	45.453798	243.391588	-411.931902	54.055557	178.119749	-220.499158	37.921958	168.898568	
1057	4.228000	-132.049024	1278.889298	340.722680	-148.972780	1280.357242	50.313208	-220.533207	1335.610390	184.594274	-102.961555	853.225529	358.115464	-95.771566	853.185534	88.105895	-304.071128	895.405233	209.556460	-177.187711	761.677980	406.722367	-166.373789	758.705676	28.357379	-39.923131	440.351605	343.385160	-248.790815	422.129154	78.555331	-38.636670	380.477071	345.982999	9.539584	88.488147	298.795164	-269.928366	356.678486	80.071270	-340.658367	77.120095	136.271670	136.755988	73.505200	291.062742	-35.885341	43.969464	243.086427	-411.833733	54.709163	177.924708	-220.339298	37.956458	168.728948	
1058	4.232000	-127.570450	1278.254271	340.890765	-144.731998	1279.885292	50.502971	-216.240823	1335.054636	184.859425	-98.851958	852.660358	358.127981	-91.776043	852.752924	88.019826	-299.685091	894.845247	210.018978	-172.752917	761.094570	406.969488	-162.590951	758.245945	28.396472	-36.402680	439.081073	343.226194	-248.235166	421.938330	77.534787	-34.039833	379.122972	345.740139	20.709828	88.197887	298.775643	-267.962873	356.564701	80.116868	-340.497434	77.667639	136.057943	148.325756	75.869173	290.903181	-23.842918	42.730145	243.077189	-411.707729	55.398308	177.719682	-220.191032	37.950329	168.565363	
1059	4.236000	-123.100959	1277.625084	341.107756	-140.524790	1279.433250	50.717533	-211.956695	1334.504962	185.137033	-94.541590	852.062821	358.129025	-87.766409	852.326155	87.939240	-295.277625	894.272685	210.471287	-168.201372	760.485053	407.140344	-158.836141	757.785201	28.412521	-32.993127	437.814325	343.132794	-246.311381	421.814322	77.197924	-29.488467	377.814800	345.520079	31.644952	88.068843	298.790425	-265.941530	356.368452	80.302894	-340.265393	78.078106	135.874346	159.589976	78.295469	290.752649	-12.092723	41.713655	243.225738	-411.583066	56.093168	177.510321	-220.125064	37.999306	168.402910	
1060	4.240000	-118.645132	1276.990533	341.300845	-136.284664	1278.974891	50.962370	-207.650647	1333.941936	185.439423	-89.918795	851.433873	358.138919	-83.673455	851.903081	87.882243	-290.827513	893.684685	210.962117	-163.610935	759.812951	407.330602	-154.926926	757.249773	28.564677	-29.594831	436.518967	343.093753	-244.042858	421.719193	77.048890	-24.948273	376.530200	345.328778	42.336743	88.053003	298.827767	-264.150202	356.580853	79.981171	-339.971662	78.467257	135.685921	170.553148	80.777228	290.624499	-0.617597	40.832877	243.463829	-411.431342	56.799468	177.255303	-220.166400	38.110659	168.314189	
1061	4.244000	-114.173517	1276.359797	341.505110	-132.058114	1278.509736	51.207237	-203.331590	1333.373427	185.748473	-84.871920	850.774646	358.177871	-79.584025	851.466298	87.786384	-286.354959	893.095911	211.451888	-159.035638	759.164274	407.589763	-150.968581	756.702185	28.685175	-26.130138	435.204834	343.041211	-241.668344	421.622038	76.954827	-20.403404	375.315756	345.169216	52.710921	88.136964	298.897922	-261.999249	356.241763	80.390885	-339.656711	78.868389	135.493487	181.176022	83.273754	290.492803	10.602306	40.060483	243.700325	-411.248296	57.541765	176.955312	-220.137268	38.111746	168.279186	
1062	4.248000	-109.705828	1275.738358	341.755390	-127.841190	1278.054595	51.463388	-199.031785	1332.808733	186.076581	-79.289310	850.086093	358.266175	-75.461738	850.986540	87.702245	-281.853497	892.488062	211.963832	-154.355809	758.540094	407.840073	-146.950021	756.128490	28.771443	-22.663962	433.953464	342.967391	-238.398746	421.560645	77.270001	-15.823081	374.155939	345.033437	62.808216	88.330418	298.987001	-259.880275	356.187433	80.409102	-339.303464	79.305291	135.292649	191.447616	85.771978	290.370256	21.476772	39.460931	243.929788	-411.071479	58.312297	176.619604	-220.110893	38.092937	168.260694	
1063	4.252000	-105.222531	1275.110841	342.049986	-123.653837	1277.617931	51.724333	-194.762379	1332.233667	186.412513	-73.571044	849.335551	358.290195	-71.305364	850.491166	87.617345	-277.301461	891.872764	212.467581	-149.599254	757.887125	408.026516	-143.003419	755.598426	28.942622	-19.240268	432.740688	342.965543	-234.059840	421.541750	78.080498	-11.228645	373.045862	344.965219	72.612286	88.623792	299.074829	-257.990509	356.453955	79.981714	-338.920474	79.762436	135.070696	201.378137	88.238627	290.258586	32.078572	39.001908	244.186535	-410.891533	59.152491	176.286191	-220.087141	38.069598	168.246672	
1064	4.256000	-100.731030	1274.492979	342.308342	-119.461015	1277.168989	51.999994	-190.469891	1331.634641	186.761156	-70.164151	848.355114	357.600778	-67.107737	849.995971	87.515429	-272.745311	891.241848	212.975353	-144.773960	757.224500	408.227056	-138.908267	755.033255	29.105615	-15.822312	431.513608	343.047947	-231.061071	421.468586	78.198254	-6.650173	371.996790	344.884962	82.098529	88.963367	299.150348	-256.054163	356.775522	79.470165	-338.549286	80.239035	134.826735	210.959196	90.649001	290.129542	42.275198	38.692966	244.451880	-410.699666	59.998222	175.909296	-220.057443	38.043901	168.230265	
1065	4.260000	-96.193589	1273.880959	342.592716	-115.259536	1276.713967	52.312408	-186.144188	1331.026673	187.149867	-69.527194	847.286463	356.049240	-62.903240	849.487424	87.406956	-268.157542	890.603423	213.521481	-139.870837	756.569386	408.462226	-134.928122	754.502296	29.137813	-12.361858	430.351943	343.133211	-228.311658	421.378255	78.150831	-2.072946	371.030033	344.850749	91.262862	89.373447	299.247593	-253.614962	356.373936	79.814628	-338.178784	80.732182	134.573206	220.169663	92.964031	290.004104	52.157667	38.420863	244.700894	-410.520822	60.926843	175.513521	-220.012799	38.024481	168.222800	
1066	4.264000	-91.669492	1273.286939	342.929333	-111.118987	1276.274204	52.617889	-181.807071	1330.423951	187.552944	-65.372869	846.966743	355.391324	-58.657173	848.944664	87.307185	-263.551980	889.945447	214.059442	-134.840727	755.917311	408.619732	-131.476536	754.121542	28.934367	-8.685064	429.281533	343.142450	-225.615636	421.243906	78.080326	2.501163	370.106518	344.858587	100.055665	89.807868	299.311519	-251.370907	356.277168	79.815648	-337.774783	81.258073	134.307563	229.015425	95.154092	289.874792	61.594874	38.283877	244.885802	-410.298049	61.881356	175.082073	-219.968498	37.998199	168.215320	
